<svg width="46" height="46" viewBox="0 0 46 46" fill="none" xmlns="http://www.w3.org/2000/svg">
<g id="quality 1" clip-path="url(#clip0_90_358)">
<g id="XMLID_1364_">
<g id="XMLID_141_">
<path id="XMLID_162_" d="M40.9857 40.0436L35.2931 30.1836C36.2373 29.3885 36.8898 28.2577 37.0641 26.9763C37.1825 26.105 37.6306 25.3287 38.3259 24.7905C40.1284 23.3953 40.7844 20.9474 39.9211 18.8377C39.588 18.0239 39.588 17.1275 39.9211 16.3138C40.7844 14.2041 40.1284 11.7563 38.3259 10.361C37.6306 9.8228 37.1824 9.04652 37.0641 8.17521C36.7569 5.91661 34.9649 4.1246 32.7062 3.81755C31.835 3.69905 31.0587 3.25092 30.5206 2.5556C29.1252 0.753039 26.6776 0.0971872 24.5677 0.960493C23.7539 1.29356 22.8576 1.29356 22.0438 0.960493C19.9343 0.0970994 17.4864 0.753039 16.0911 2.5556C15.5528 3.25092 14.7766 3.69905 13.9053 3.81755C11.6466 4.12469 9.85463 5.91661 9.54759 8.1753C9.42909 9.04661 8.98096 9.82289 8.28564 10.3611C6.48308 11.7564 5.82722 14.2043 6.69053 16.3139C7.0236 17.1276 7.0236 18.0241 6.69053 18.8378C5.82714 20.9474 6.48308 23.3953 8.28564 24.7906C8.98096 25.3288 9.42909 26.1051 9.54759 26.9763C9.7241 28.2746 10.3918 29.4179 11.356 30.2144L5.68113 40.0436C5.50339 40.3515 5.52853 40.7362 5.74503 41.0182C5.96145 41.3002 6.32634 41.4242 6.66996 41.3322L11.6164 40.0068L12.9361 44.9319C13.0281 45.2754 13.318 45.5295 13.6705 45.5759C13.709 45.581 13.7474 45.5835 13.7854 45.5835C14.0964 45.5835 14.3881 45.4182 14.5464 45.144L20.67 34.5377C21.1343 34.4877 21.5967 34.374 22.0438 34.191C22.8576 33.858 23.754 33.858 24.5677 34.191C25.0338 34.3819 25.5166 34.4982 26.0008 34.5446L32.1204 45.144C32.2788 45.4183 32.5703 45.5835 32.8814 45.5835C32.9195 45.5835 32.9578 45.581 32.9964 45.5759C33.3489 45.5295 33.6387 45.2754 33.7308 44.9319L35.0506 40.0068L39.997 41.3322C40.3402 41.4242 40.7054 41.3003 40.9218 41.0182C41.1383 40.7362 41.1635 40.3515 40.9857 40.0436ZM14.0849 42.4271L13.087 38.7027C13.0266 38.4775 12.8793 38.2855 12.6774 38.1689C12.4755 38.0524 12.2357 38.0208 12.0104 38.0811L8.26472 39.0847L12.8835 31.0848C13.21 31.2017 13.5519 31.286 13.9052 31.3341C14.7765 31.4526 15.5527 31.9007 16.091 32.596C16.7741 33.4785 17.7096 34.0855 18.7342 34.3745L14.0849 42.4271ZM21.3778 32.564C19.9969 33.1292 18.3946 32.6998 17.4812 31.52C16.6589 30.4577 15.473 29.773 14.142 29.5921C12.6635 29.391 11.4904 28.218 11.2895 26.7395C11.1085 25.4084 10.4238 24.2226 9.36158 23.4003C8.18165 22.487 7.75232 20.8846 8.31746 19.5037C8.82633 18.2604 8.82633 16.8912 8.31746 15.6479C7.75232 14.2671 8.18165 12.6646 9.36158 11.7513C10.4238 10.9291 11.1085 9.74325 11.2895 8.41212C11.4905 6.93366 12.6635 5.76058 14.142 5.55954C15.473 5.37864 16.6589 4.69395 17.4812 3.63172C18.1253 2.79953 19.1119 2.34076 20.1221 2.34076C20.5443 2.34076 20.9707 2.42102 21.3777 2.5876C22.621 3.09638 23.9904 3.09638 25.2335 2.5876C26.6143 2.02237 28.2168 2.45178 29.1301 3.63172C29.9524 4.69395 31.1382 5.37864 32.4692 5.55954C33.9476 5.76058 35.1207 6.93357 35.3217 8.41212C35.5027 9.74325 36.1874 10.9291 37.2497 11.7513C38.4296 12.6646 38.8589 14.267 38.2938 15.6479C37.785 16.8912 37.785 18.2604 38.2938 19.5037C38.8589 20.8846 38.4295 22.487 37.2497 23.4003C36.1874 24.2225 35.5027 25.4084 35.3217 26.7394C35.1207 28.2179 33.9476 29.391 32.4693 29.592C31.1381 29.7729 29.9523 30.4576 29.13 31.5199C28.2166 32.6999 26.6143 33.1291 25.2335 32.5639C23.9903 32.0552 22.6211 32.0552 21.3778 32.564ZM34.6564 38.0811C34.1873 37.9553 33.7055 38.2338 33.5798 38.7027L32.5818 42.4271L27.9246 34.3606C28.9305 34.0663 29.8479 33.4648 30.5205 32.596C31.0587 31.9006 31.8349 31.4525 32.7062 31.3341C33.076 31.2838 33.433 31.193 33.7733 31.0675L38.402 39.0847L34.6564 38.0811Z" fill="#2C2C2C"/>
<path id="XMLID_1190_" d="M19.311 14.3242L16.5761 17.0591C16.4113 17.2239 16.3186 17.4475 16.3186 17.6806C16.3186 17.9137 16.4113 18.1374 16.5761 18.3022L21.7055 23.4317C21.8704 23.5966 22.094 23.6892 22.3271 23.6892C22.5602 23.6892 22.7839 23.5966 22.9487 23.4317L30.0909 16.2895C30.4341 15.9463 30.4341 15.3897 30.0909 15.0464L27.356 12.3115C27.1911 12.1466 26.9676 12.054 26.7344 12.054C26.5013 12.054 26.2777 12.1466 26.1129 12.3115L22.3272 16.0972L20.5543 14.3243C20.3895 14.1595 20.1659 14.0668 19.9328 14.0668C19.6995 14.0667 19.4759 14.1594 19.311 14.3242ZM21.7054 17.9619C21.8703 18.1267 22.0939 18.2194 22.327 18.2194C22.5601 18.2194 22.7838 18.1267 22.9486 17.9619L26.7343 14.1762L28.2261 15.668L22.327 21.567L18.4408 17.6807L19.9326 16.189L21.7054 17.9619Z" fill="#2C2C2C"/>
<path id="XMLID_1191_" d="M34.761 17.8715C34.761 15.5364 34.0612 13.2907 32.7373 11.377C31.4445 9.50843 29.6487 8.07955 27.5441 7.24499C27.0927 7.06611 26.5819 7.28683 26.403 7.73813C26.224 8.18943 26.4448 8.70033 26.896 8.8793C30.6058 10.3504 33.003 13.8801 33.003 17.8715C33.003 23.2033 28.6653 27.541 23.3335 27.541C18.0018 27.541 13.6641 23.2033 13.6641 17.8715C13.6641 13.88 16.0612 10.3503 19.771 8.87922C20.2223 8.70024 20.4432 8.18934 20.2642 7.73805C20.0852 7.28675 19.5742 7.06593 19.123 7.2449C17.0183 8.07955 15.2225 9.50834 13.9297 11.3769C12.6058 13.2906 11.906 15.5364 11.906 17.8714C11.906 24.1726 17.0324 29.299 23.3335 29.299C29.6347 29.299 34.761 24.1727 34.761 17.8715Z" fill="#2C2C2C"/>
<path id="XMLID_1218_" d="M23.3334 8.20191C23.5646 8.20191 23.7914 8.10874 23.9548 7.94435C24.1183 7.78085 24.2124 7.55494 24.2124 7.32287C24.2124 7.09169 24.1184 6.86489 23.9548 6.70139C23.7914 6.53789 23.5646 6.44383 23.3334 6.44383C23.1022 6.44383 22.8754 6.53789 22.7119 6.70139C22.5484 6.86489 22.4543 7.09169 22.4543 7.32287C22.4543 7.55494 22.5484 7.78085 22.7119 7.94435C22.8754 8.10874 23.1022 8.20191 23.3334 8.20191Z" fill="#2C2C2C"/>
</g>
</g>
</g>
<defs>
<clipPath id="clip0_90_358">
<rect width="45" height="45" fill="white" transform="translate(0.833374 0.583519)"/>
</clipPath>
</defs>
</svg>
